<?xml version="1.0" encoding="utf-8"?>
<!-- Generator: Adobe Illustrator 16.0.0, SVG Export Plug-In . SVG Version: 6.00 Build 0)  -->
<!DOCTYPE svg PUBLIC "-//W3C//DTD SVG 1.1//EN" "http://www.w3.org/Graphics/SVG/1.1/DTD/svg11.dtd">
<svg version="1.1" id="Layer_1" xmlns="http://www.w3.org/2000/svg" xmlns:xlink="http://www.w3.org/1999/xlink" x="0px" y="0px"
	 width="2000px" height="1000px" viewBox="0 0 2000 1000" enable-background="new 0 0 2000 1000" xml:space="preserve">
<g>
	<g>
		<linearGradient id="SVGID_1_" gradientUnits="userSpaceOnUse" x1="140.5771" y1="364.7188" x2="680.4713" y2="616.4755">
			<stop  offset="0" style="stop-color:#549A97"/>
			<stop  offset="1" style="stop-color:#003D73"/>
		</linearGradient>
		<path fill-rule="evenodd" clip-rule="evenodd" fill="url(#SVGID_1_)" d="M178.232,534.46c2.771,0.334,5.45-2.951,5.98-7.34
			c0.532-4.389-1.284-8.221-4.056-8.557c-2.772-0.334-5.45,2.951-5.982,7.34C173.644,530.294,175.46,534.124,178.232,534.46z
			 M685.041,594.514c-3.063,3.187-3.915,7.338-1.901,9.274c2.012,1.935,6.128,0.92,9.192-2.268s3.916-7.34,1.902-9.275
			S688.105,591.325,685.041,594.514z M537.402,460.423c0,40.066-186.769,40.066-186.769,0c0-43.459,44.648-65.655,90.283-66.618
			h6.204C492.756,394.767,537.402,416.964,537.402,460.423z M418.09,459.837c0-7.231-2.601-13.817-6.806-18.619
			c-4.342-4.958-10.375-8.025-17.069-8.025c-4.561,0-8.824,1.429-12.461,3.916c-3.66,2.502-6.671,6.09-8.681,10.364
			c-1.016,2.174-0.077,4.758,2.095,5.774c2.173,1.016,4.757,0.078,5.772-2.096c1.339-2.845,3.32-5.219,5.718-6.856
			c2.214-1.514,4.799-2.385,7.557-2.385c4.084,0,7.81,1.923,10.531,5.028c2.858,3.265,4.626,7.822,4.626,12.898
			c0,2.406,1.952,4.358,4.358,4.358C416.139,464.195,418.09,462.243,418.09,459.837z M514.964,447.473
			c-2.01-4.274-5.02-7.862-8.679-10.364c-3.638-2.487-7.902-3.916-12.461-3.916c-6.693,0-12.727,3.067-17.069,8.025
			c-4.205,4.802-6.808,11.388-6.808,18.619c0,2.406,1.953,4.358,4.36,4.358c2.409,0,4.359-1.952,4.359-4.358
			c0-5.076,1.77-9.634,4.628-12.898c2.72-3.105,6.447-5.028,10.53-5.028c2.757,0,5.342,0.871,7.557,2.385
			c2.397,1.638,4.38,4.012,5.718,6.856c1.016,2.174,3.599,3.111,5.771,2.096C515.042,452.23,515.979,449.646,514.964,447.473z
			 M482.314,636.738c3.122,2.474,6.921,2.88,8.481,0.909c1.563-1.972,0.298-5.577-2.824-8.051c-3.122-2.473-6.92-2.879-8.481-0.908
			C477.928,630.661,479.193,634.267,482.314,636.738z M178.85,556.11c-2.755,0.446-4.417,4.347-3.709,8.71
			c0.708,4.365,3.515,7.54,6.27,7.094c2.756-0.447,4.418-4.346,3.71-8.71C184.413,558.839,181.605,555.663,178.85,556.11z
			 M740.311,533.522c3.413,28.757-2.479,56.647-19.582,80.284c-9.466,13.082-21.469,23.713-34.947,32.143
			c4.934,5.192,9.346,10.736,13.035,16.677c18.392,29.62,16.113,67.807-11.06,91.322c-16.146,13.973-33.451,17.291-54.22,17.858
			c-1.811,0.048-4.398,0.098-7.039-0.152c-5.13,6.913-11.282,13.081-18.306,18.481c-5.038,3.871-10.441,7.263-16.091,10.168
			c-30.298,15.589-75.292,19.643-104.238-0.924c-25.097-17.832-36.047-52.342-23.887-80.947
			c6.979-16.418,23.86-30.143,41.845-32.744c-9.654-6.964-19.457-13.718-28.981-20.844c-10.482-7.846-20.638-16.276-28.867-26.53
			c-1.38-1.716-2.698-3.477-3.952-5.282c-1.256,1.806-2.574,3.566-3.954,5.282c-8.229,10.254-18.385,18.685-28.866,26.53
			c-9.525,7.126-19.327,13.88-28.981,20.844c17.983,2.602,34.866,16.326,41.844,32.744c12.16,28.605,1.209,63.115-23.887,80.947
			c-28.947,20.566-73.94,16.513-104.239,0.924c-14.543-7.48-26.009-17.225-34.414-28.617c-2.518,0.213-4.958,0.167-6.69,0.12
			c-20.77-0.567-38.075-3.886-54.221-17.858c-27.172-23.516-29.452-61.702-11.058-91.322c3.656-5.891,8.024-11.392,12.909-16.546
			c-13.563-8.45-25.64-19.124-35.154-32.273c-17.103-23.637-22.996-51.527-19.582-80.284c4.423-37.256,23.706-72.977,45.376-103.019
			c17.126-23.743,37.928-53.457,26.978-84.12c-0.646-1.809-1.297-3.924-2.173-5.863c-7.007,13.925-21.905,24.845-37.409,24.845
			c-11.87,0-22.916-4.314-30.839-13.308c-10.254-11.639-12.626-28.099-9.461-42.893c3.244-15.175,12.283-29.095,25.753-37.068
			c15.082-8.928,32.166-12.366,49.529-10.146c29.372,3.758,55.653,23.078,69.322,49.125c10.897-47.682,52.278-80.645,95.046-102.37
			c14.618-7.426,47.413-22.131,63.242-22.131c0.309,0,0.617,0.002,0.927,0.008c0.31-0.006,0.617-0.008,0.927-0.008
			c15.827,0,48.622,14.705,63.241,22.131c42.768,21.726,84.148,54.688,95.045,102.37c13.669-26.047,39.95-45.367,69.322-49.125
			c17.364-2.22,34.45,1.219,49.528,10.146c13.472,7.974,22.508,21.894,25.755,37.068c3.165,14.794,0.794,31.254-9.461,42.893
			c-7.924,8.993-18.969,13.308-30.838,13.308c-15.507,0-30.404-10.92-37.41-24.845c-0.878,1.939-1.528,4.055-2.175,5.863
			c-10.95,30.663,9.853,60.377,26.979,84.12C716.603,460.546,735.887,496.267,740.311,533.522z M592.333,392.574
			c-5.865,12.248-13.406,23.778-22.2,33.909c-0.771,0.89-1.555,1.769-2.348,2.638c9.596,15.798,11.455,34.116,1.69,50.761
			c-6.636,11.313-15.716,23.214-14.468,37.047c1.627,18.044,21.157,24.6,36.781,24.035c13.19-0.477,26.062-6.871,32.999-18.353
			c4.988-8.257,1.778-23.43-0.585-32.134c-2.683-9.877-6.401-19.31-10.2-28.792C604.997,439.218,596.195,416.419,592.333,392.574z
			 M274.036,461.686c-3.8,9.482-7.518,18.915-10.2,28.792c-2.364,8.704-5.574,23.877-0.585,32.134
			c6.938,11.481,19.808,17.876,33,18.353c15.623,0.564,35.152-5.991,36.779-24.035c1.248-13.833-7.832-25.733-14.467-37.047
			c-9.766-16.645-7.905-34.963,1.689-50.761c-0.793-0.869-1.576-1.748-2.349-2.638c-8.794-10.131-16.333-21.661-22.199-33.909
			C291.843,416.419,283.041,439.218,274.036,461.686z M216.814,632.946c8.566-6.896,17.915-13.075,27.377-18.675
			c-6.057-2.397-11.643-5.413-17.782-9.545c-2.915-2.046-5.51-4.093-8.179-6.449c-12.117-11.183-19.037-21.218-24.179-36.941
			c-4.125-14.483-4.419-25.959-2.75-40.836c4.282-29.197,14.051-52.293,24.998-79.292c3.987-9.915,7.821-19.617,11.234-29.437
			c-5.552,9.987-12.271,19.823-19.337,29.619C138.659,537.796,162.882,602.271,216.814,632.946z M685.068,675.871
			c-20.29-33.557-44.503-50.796-78.048-68.481c-17.422-9.185-41.953-22.591-54.694-36.488c-5.175-5.644-1.991-6.988,2.99-3.436
			c16.307,11.629,45.269,26.61,61.886,35.1c3.125,1.598,6.242,3.219,9.334,4.866c0.563-0.091,1.12-0.187,1.67-0.29
			c10.436-2.741,18.037-6.072,27.01-12.115c2.519-1.768,4.776-3.54,7.088-5.571c10.457-9.588,16.468-18.063,21.063-31.536
			c3.805-12.765,4.135-23.002,2.889-36.186c-3.561-28.009-12.797-51.16-22.446-77.357c-8.118-22.301-15.428-43.355-18.717-66.985
			c-1.257-10.713-1.59-19.884,0.914-30.444c1.311-5.008,5.719-18.888,14.925-25.031c8.583-8.545,20.698-15.657,30.007-17.208
			c1.742-0.53,3.541-0.842,5.368-0.896c3.427-0.005,6.056,0.486,9.221,1.804c3.039,1.373,5.143,2.883,7.267,5.465
			c2.045,2.706,3.023,5.106,3.323,8.486c0.004,1.904-1.083,9.354-3.584,9.211c-0.608-0.434-1.092-6.057-1.945-8.195
			c-0.788-1.891-1.699-3.1-3.299-4.379c-1.549-1.15-2.933-1.744-4.802-2.201c-1.972-0.41-3.563-0.449-5.555-0.154
			c-1.978,0.357-3.431,0.89-5.143,1.945c-1.719,1.153-2.796,2.267-3.926,3.998c-0.976,1.621-1.527,3.029-2.025,4.852
			c-0.171,0.666-0.312,1.315-0.433,1.992c-0.072,0.478-0.132,0.935-0.184,1.375c2.458,8.486,11.516,18.747,22.316,18.747
			c30.41,0,29.177-44.37,5.064-58.646c-35.349-20.928-81.296,0.622-96.17,38.804c-2.675,6.865-4.594,14.065-5.836,21.256
			c-6.689,38.766,8.027,75.025,20.68,106.594c13.018,32.481,20.554,59.076,9.439,77.472c-8.751,14.484-25.892,26.519-48.256,27.326
			c-24.107,0.87-53.292-11.09-55.985-40.959c-0.164-1.82-0.214-3.612-0.167-5.376c-6.538,7.347-12.692,13.685-14.544,13.896
			c-2.915-6.515,17.868-35.067,23.084-42.355c3.155-5.847,6.471-10.707,8.578-14.299c7.381-12.584,2.969-24.609-2.061-32.513
			c-6.898-9.432-20.686-26.139-20.724-26.937c4.574-1.176,12.339,3.665,19.427,9.736c1.634-1.654,3.641-3.736,6.013-6.47
			c26.444-30.463,75.755-121.896-56.323-188.987c-20.82-10.577-39.951-17.159-49.589-19.322c-1.013-0.227-5.348-0.997-6.636-1.007
			c-0.745-0.006-3.36,0.349-3.914,0.643c-8.917,1.69-29.169,8.424-51.339,19.687c-132.08,67.091-82.768,158.524-56.324,188.987
			c2.448,2.82,4.505,4.946,6.167,6.625c7.137-6.145,14.994-11.078,19.608-9.892c-0.042,0.883-16.954,21.286-22.686,29.702
			c-4.233,7.802-6.999,18.553-0.432,29.747c2.105,3.592,5.422,8.452,8.578,14.299c5.214,7.288,25.997,35.841,23.083,42.355
			c-1.852-0.211-8.007-6.549-14.544-13.896c0.048,1.764-0.002,3.556-0.166,5.376c-2.694,29.869-31.879,41.829-55.985,40.959
			c-22.365-0.808-39.505-12.842-48.256-27.326c-11.115-18.396-3.579-44.99,9.439-77.472c12.653-31.568,27.37-67.828,20.678-106.594
			c-1.241-7.19-3.161-14.391-5.835-21.256c-14.874-38.182-60.821-59.731-96.171-38.804c-24.112,14.276-25.346,58.646,5.066,58.646
			c10.799,0,19.857-10.261,22.317-18.747c-0.055-0.44-0.114-0.897-0.185-1.375c-0.121-0.677-0.262-1.326-0.434-1.992
			c-0.499-1.822-1.049-3.23-2.025-4.852c-1.128-1.731-2.206-2.845-3.925-3.998c-1.712-1.056-3.165-1.588-5.143-1.945
			c-1.992-0.295-3.583-0.256-5.555,0.154c-1.87,0.457-3.253,1.051-4.801,2.201c-1.602,1.279-2.512,2.488-3.3,4.379
			c-0.851,2.139-1.338,7.762-1.945,8.195c-2.503,0.144-3.59-7.307-3.584-9.211c0.299-3.38,1.279-5.78,3.321-8.486
			c2.126-2.582,4.23-4.092,7.269-5.465c3.165-1.317,5.794-1.809,9.221-1.804c2.624,0.078,4.781,0.439,7.013,1.222
			c9.123,2.068,20.442,8.934,28.54,17.061c7.074,6.531,13.239,17.818,15.079,24.854c2.506,10.561,2.171,19.731,0.915,30.444
			c-3.288,23.63-10.599,44.685-18.716,66.985c-9.649,26.197-18.885,49.349-22.448,77.357c-1.244,13.184-0.913,23.421,2.892,36.186
			c4.595,13.473,10.606,21.948,21.063,31.536c2.312,2.031,4.569,3.804,7.087,5.571c8.323,5.605,15.463,8.876,24.781,11.508
			c0.68-0.367,1.358-0.73,2.036-1.091c0.204,0.605,0.406,1.197,0.609,1.774c0.338,0.062,0.679,0.119,1.023,0.178
			c3.07-1.637,6.162-3.244,9.263-4.83c16.617-8.489,45.579-23.471,61.885-35.1c4.982-3.553,8.166-2.208,2.991,3.436
			c-12.743,13.897-37.272,27.304-54.695,36.488c-33.543,17.686-57.757,34.925-78.047,68.481c-5.406,9.948-7.528,18.435-7.378,29.748
			c1.933,36.375,29.942,51.298,62.939,50.234c-10.108-22.614-8.587-53.405,1.917-78.914c6.006-14.585,16.292-26.006,26.151-36.243
			c22.036-22.88,47.696-33.2,72.058-61.523c5.665-6.637,11.087-16.337,15.102-24.299c7.882-15.636,7.751-2.386,4.446,5.8
			c-21.4,53.001-81.621,67.001-103.241,121.954c-7.114,18.083-10.787,48.72,1.146,77.396
			c26.574,36.581,85.749,43.727,113.256,24.184c20.091-14.275,25.318-40.195,17.538-58.495
			c-5.589-13.151-19.927-21.859-30.799-21.859c-11.819,0-21.402,9.582-21.402,21.401c0,11.82,9.583,21.401,21.402,21.401
			c7.087,0,13.368-3.445,17.263-8.75c-1.426,6.414-4.284,11.388-8.042,15.054c-5.556,7.702-34.775,17.309-57.192,5.173
			c-14.693-7.954-22.119-22.81-23.505-39.304c-0.492-14.162,2.934-24.496,10.25-36.542c15.231-21.994,34.794-33.616,56.042-48.903
			c17.027-12.455,29.422-24.002,38.126-37.545c5.462-8.494,10.098-9.852,5.521,0.994c-8.399,19.907-29.23,36.243-37.643,43.07
			c-18.886,14.986-38.426,27.665-51.787,48.143c-5.758,9.965-8.525,18.455-7.94,30.023c1.306,13.506,7.365,24.233,17.926,30.418
			c-7.066-8.68-9.418-21.145-5.684-32.524c4.256-12.969,16.673-26.668,33.558-39.282c48.726-36.404,75.032-46.423,80.082-97.188
			c0.365-3.666,0.618-2.296,0.763-6.413h0.287c0.147,4.196,0.407,2.896,0.785,6.623c5.103,50.586,31.403,60.624,80.06,96.979
			c16.885,12.614,29.303,26.313,33.559,39.282c3.739,11.394,1.375,23.877-5.712,32.558c10.598-6.178,16.678-16.919,17.986-30.451
			c0.584-11.568-2.182-20.059-7.94-30.023c-13.362-20.478-32.901-33.156-51.787-48.143c-8.412-6.827-29.245-23.163-37.643-43.07
			c-4.576-10.846,0.06-9.488,5.521-0.994c8.705,13.543,21.099,25.09,38.126,37.545c21.247,15.287,40.81,26.909,56.042,48.903
			c7.315,12.046,10.743,22.38,10.249,36.542c-1.384,16.494-8.812,31.35-23.503,39.304c-22.326,12.087-51.397,2.607-57.125-5.077
			c-3.805-3.677-6.704-8.679-8.142-15.149c3.895,5.305,10.176,8.75,17.262,8.75c11.821,0,21.402-9.581,21.402-21.401
			c0-11.819-9.581-21.401-21.402-21.401c-10.873,0-25.209,8.708-30.799,21.859c-7.779,18.3-2.554,44.22,17.538,58.495
			c27.534,19.563,86.798,12.383,113.336-24.293c11.876-28.646,8.204-59.227,1.099-77.287
			c-21.621-54.953-81.841-68.953-103.24-121.954c-3.305-8.186-3.437-21.436,4.445-5.8c4.016,7.962,9.438,17.662,15.103,24.299
			c24.359,28.323,50.021,38.644,72.056,61.523c9.86,10.237,20.146,21.658,26.151,36.243c10.504,25.509,12.025,56.3,1.917,78.914
			c32.997,1.063,61.008-13.859,62.94-50.234C692.596,694.306,690.476,685.819,685.068,675.871z M679.84,441.391
			c-6.695-9.284-13.08-18.603-18.455-28.05c3.272,9.285,6.911,18.481,10.687,27.867c10.945,26.999,20.715,50.095,24.996,79.292
			c1.67,14.877,1.377,26.353-2.75,40.836c-5.142,15.724-12.061,25.759-24.178,36.941c-2.669,2.356-5.265,4.403-8.178,6.449
			c-6.141,4.132-11.726,7.147-17.784,9.545c9.415,5.57,18.714,11.714,27.242,18.565C725.216,602.118,749.295,537.68,679.84,441.391z
			 M701.427,493.476c2.304-1.011,2.875-4.787,1.275-8.435c-1.601-3.647-4.766-5.787-7.069-4.774
			c-2.303,1.009-2.875,4.785-1.275,8.434C695.959,492.348,699.124,494.485,701.427,493.476z M709.691,534.46
			c2.771-0.336,4.588-4.166,4.057-8.557c-0.531-4.389-3.209-7.674-5.982-7.34c-2.771,0.336-4.588,4.168-4.056,8.557
			C704.241,531.509,706.918,534.794,709.691,534.46z M709.071,556.11c-2.756-0.447-5.563,2.729-6.27,7.094
			c-0.709,4.364,0.953,8.263,3.709,8.71c2.756,0.446,5.563-2.729,6.271-7.094C713.489,560.457,711.828,556.557,709.071,556.11z
			 M193.688,592.245c-2.013,1.936-1.162,6.088,1.902,9.275c3.064,3.188,7.179,4.202,9.194,2.268c2.011-1.937,1.16-6.088-1.904-9.274
			C199.816,591.325,195.701,590.31,193.688,592.245z M193.563,488.7c1.601-3.648,1.028-7.425-1.274-8.434
			c-2.304-1.013-5.469,1.127-7.068,4.774c-1.599,3.647-1.029,7.424,1.274,8.435C188.798,494.485,191.963,492.348,193.563,488.7z
			 M346.665,674.732c-2.191-1.731-6.189-0.325-8.932,3.142c-2.744,3.465-3.194,7.681-1.004,9.414
			c2.189,1.732,6.189,0.328,8.933-3.14C348.406,680.682,348.854,676.467,346.665,674.732z M369.304,652.651
			c-3.598,2.57-5.198,6.496-3.577,8.768c1.624,2.271,5.856,2.03,9.452-0.538c3.6-2.569,5.2-6.495,3.577-8.767
			C377.135,649.841,372.902,650.081,369.304,652.651z M551.325,687.288c2.188-1.733,1.739-5.949-1.003-9.414
			c-2.744-3.467-6.743-4.873-8.933-3.142c-2.189,1.734-1.741,5.949,1.003,9.416C545.136,687.616,549.135,689.021,551.325,687.288z
			 M512.873,660.881c3.598,2.568,7.829,2.81,9.452,0.538c1.623-2.271,0.022-6.197-3.576-8.768c-3.598-2.57-7.829-2.811-9.453-0.537
			C507.673,654.386,509.274,658.312,512.873,660.881z M400.081,629.597c-3.122,2.474-4.387,6.079-2.825,8.051
			c1.563,1.971,5.359,1.564,8.482-0.909c3.122-2.472,4.386-6.077,2.824-8.05C407.001,626.718,403.205,627.124,400.081,629.597z"/>
	</g>
	<linearGradient id="SVGID_2_" gradientUnits="userSpaceOnUse" x1="869.1953" y1="296.9678" x2="1708.572" y2="688.3755">
		<stop  offset="0" style="stop-color:#549A97"/>
		<stop  offset="1" style="stop-color:#003D73"/>
	</linearGradient>
	<path fill-rule="evenodd" clip-rule="evenodd" fill="url(#SVGID_2_)" d="M1375.944,465.926l-52.49,157.473
		c-0.928,3.013-2.722,5.505-5.39,7.473c-2.663,1.971-5.852,2.954-9.559,2.954c-3.246,0-6.375-0.983-9.385-2.954
		c-3.012-1.968-4.869-4.46-5.562-7.473l-37.046-130.657l-38.041,130.657c-0.925,3.013-2.839,5.505-5.733,7.473
		c-2.897,1.971-6.084,2.954-9.562,2.954c-3.476,0-6.603-0.983-9.385-2.954c-2.779-1.968-4.75-4.46-5.907-7.473l-52.493-157.473
		c-1.621-6.721-1.506-12.107,0.348-16.165c1.854-4.053,5.795-6.082,11.818-6.082c3.938,0,7.244,1.044,9.907,3.13
		c2.667,2.085,4.809,5.562,6.433,10.429l40.112,124.318l37.406-125.71c1.158-3.708,3.014-6.664,5.563-8.863
		c2.547-2.203,6.025-3.304,10.428-3.304c4.172,0,7.591,1.101,10.253,3.304c2.664,2.199,4.462,5.155,5.388,8.863l34.646,126.923
		l40.438-125.531c2.782-9.039,8.114-13.559,15.993-13.559c6.026,0,10.08,2.144,12.165,6.433
		C1378.378,454.398,1378.262,459.67,1375.944,465.926z M939.527,602.193h-8.69c-5.562,0.231-10.082-2.607-13.556-8.517
		c-3.477-5.91-5.215-13.383-5.215-22.422V377.978c-0.23-4.631-1.796-8.398-4.692-11.294c-2.899-2.897-6.665-4.347-11.3-4.347
		s-8.4,1.449-11.296,4.347c-2.897,2.896-4.347,6.663-4.347,11.294v193.277c0,12.283,2.146,23.114,6.431,32.503
		c4.287,9.384,10.257,16.743,17.901,22.073c7.649,5.33,16.34,7.994,26.073,7.994h2.436c5.792,0,10.602-1.448,14.422-4.344
		c3.825-2.897,5.854-6.663,6.084-11.298c-0.23-4.634-1.623-8.401-4.17-11.297C947.058,603.987,943.699,602.425,939.527,602.193z
		 M1559.576,539.119c-0.009-0.163-0.023-0.328-0.035-0.493l0.8,0.301c-0.235-18.307-4.577-34.762-13.036-49.361
		c-8.459-14.599-19.873-26.188-34.24-34.763c-14.369-8.575-30.588-12.862-48.669-12.862c-18.304,0-34.702,4.287-49.186,12.862
		c-14.484,8.574-26.013,20.104-34.587,34.589c-8.574,14.484-12.864,30.995-12.864,49.535c0.235,18.308,4.347,34.761,12.339,49.361
		c7.997,14.6,18.832,26.13,32.504,34.589c13.672,8.457,29.085,12.571,46.235,12.341c17.148,0.23,32.383-3.768,45.707-11.994
		c9.073-5.602,16.856-12.55,23.349-20.837c0.039,0.01,0.08,0.017,0.119,0.026v15.771c0,4.635,1.506,8.458,4.52,11.471
		c3.011,3.013,6.953,4.405,11.819,4.171c4.634,0,8.458-1.448,11.47-4.344c3.016-2.897,4.521-6.663,4.521-11.298v-79.257
		L1559.576,539.119z M1528.011,582.696v-1.961c0.123,0.099,0.255,0.191,0.392,0.278
		C1528.271,581.575,1528.146,582.137,1528.011,582.696z M1520.71,573.688c-5.791,10.195-13.554,18.251-23.289,24.161
		c-9.731,5.909-20.74,8.98-33.026,9.212c-12.512,0-23.694-3.013-33.542-9.039c-9.85-6.024-17.612-14.193-23.289-24.505
		c-5.682-10.315-8.634-21.844-8.865-34.59c0-13.21,2.897-24.913,8.69-35.109c5.793-10.197,13.672-18.249,23.637-24.159
		c9.965-5.909,21.086-8.98,33.369-9.214c12.514,0,23.584,3.014,33.199,9.039c9.619,6.024,17.268,14.195,22.944,24.507
		c5.322,9.671,8.25,20.514,8.787,32.528c-0.025,1.57-0.005,3.146,0.043,4.723C1529.041,553.286,1526.158,564.103,1520.71,573.688z
		 M1846.852,602.193h-8.688c-5.563,0.231-10.082-2.607-13.557-8.517c-3.477-5.91-5.213-13.383-5.213-22.422V377.978
		c-0.233-4.631-1.796-8.398-4.693-11.294c-2.899-2.897-6.666-4.347-11.298-4.347c-4.637,0-8.402,1.449-11.296,4.347
		c-2.899,2.896-4.347,6.663-4.347,11.294v193.277c0,12.283,2.145,23.114,6.428,32.503c4.289,9.384,10.259,16.743,17.903,22.073
		c7.649,5.33,16.341,7.994,26.075,7.994h2.431c5.796,0,10.603-1.448,14.427-4.344c3.824-2.897,5.853-6.663,6.084-11.298
		c-0.231-4.634-1.623-8.401-4.175-11.297C1854.384,603.987,1851.025,602.425,1846.852,602.193z M858.01,362.337
		c-15.526,0-29.024,3.418-40.497,10.256c-11.47,6.835-20.333,16.395-26.593,28.678c-6.256,12.282-9.383,26.649-9.383,43.104v5.798
		c-0.167,0.144-0.322,0.297-0.47,0.46h-17.26c-4.403,0-7.938,1.274-10.605,3.823c-2.662,2.548-3.997,5.908-3.997,10.079
		c0,3.941,1.334,7.186,3.997,9.735c2.667,2.549,6.202,3.823,10.605,3.823H780.9c0.205,0.184,0.417,0.356,0.637,0.52v139.222
		c0,4.867,1.563,8.749,4.691,11.646c3.127,2.896,6.663,4.344,10.602,4.344c5.33,0,9.444-1.448,12.343-4.344
		c2.896-2.897,4.345-6.779,4.345-11.646V478.368c0.313-0.072,0.615-0.164,0.903-0.274h36.986c4.402,0,7.994-1.274,10.775-3.823
		c2.781-2.55,4.172-5.794,4.172-9.735c0-4.171-1.391-7.531-4.172-10.079c-2.781-2.549-6.373-3.823-10.775-3.823h-37.89v0.095
		c-0.01-0.007-0.013-0.015-0.021-0.023l-0.095-0.071h0.117v-8.692c0-10.196,1.794-19.061,5.388-26.592
		c3.591-7.532,8.689-13.382,15.293-17.556c6.604-4.17,14.541-6.256,23.811-6.256c4.635,0,8.461-1.448,11.473-4.346
		c3.012-2.896,4.519-6.313,4.519-10.253c0-4.172-1.506-7.649-4.519-10.43C866.471,363.728,862.646,362.337,858.01,362.337z
		 M1759.616,489.392c-7.996-14.485-18.831-25.955-32.501-34.415c-13.674-8.459-29.085-12.688-46.234-12.688
		c-14.6,0-27.811,3.012-39.63,9.038c-11.819,6.025-21.785,14.136-29.894,24.332v-97.331c0-4.867-1.45-8.749-4.347-11.645
		c-2.897-2.897-6.778-4.347-11.645-4.347c-4.635,0-8.459,1.449-11.472,4.347c-3.012,2.896-4.52,6.777-4.52,11.645v160.946
		c0.233,18.075,4.52,34.413,12.864,49.014c8.342,14.6,19.755,26.071,34.237,34.414c14.487,8.342,30.765,12.516,48.844,12.516
		c18.306,0,34.701-4.23,49.186-12.688c14.483-8.461,25.957-19.99,34.415-34.589c8.459-14.601,12.688-31.055,12.688-49.362
		C1771.609,520.271,1767.61,503.876,1759.616,489.392z M1731.807,573.517c-5.678,10.312-13.444,18.422-23.292,24.332
		c-9.847,5.909-20.915,8.863-33.194,8.863c-12.284,0-23.351-2.954-33.199-8.863c-9.848-5.91-17.554-14.021-23.116-24.332
		c-5.56-10.315-8.344-21.962-8.344-34.938c0-12.978,2.784-24.565,8.344-34.762c5.562-10.197,13.268-18.249,23.116-24.159
		c9.849-5.909,20.915-8.864,33.199-8.864c12.28,0,23.348,2.955,33.194,8.864c9.849,5.91,17.614,13.962,23.292,24.159
		c5.677,10.196,8.516,21.784,8.516,34.762C1740.322,551.555,1737.483,563.201,1731.807,573.517z M1127.278,488.697
		c-8.227-14.483-19.58-25.841-34.065-34.067c-14.484-8.228-30.88-12.456-49.189-12.689c-18.769,0.233-35.398,4.462-49.88,12.689
		c-14.485,8.227-25.843,19.584-34.067,34.067c-8.229,14.483-12.456,31.227-12.689,50.229c0.233,18.771,4.46,35.397,12.689,49.883
		c8.224,14.483,19.582,25.84,34.067,34.067c14.482,8.228,31.111,12.456,49.88,12.688c18.539-0.231,34.995-4.46,49.362-12.688
		c14.369-8.228,25.723-19.584,34.067-34.067c8.344-14.485,12.512-31.111,12.512-49.883
		C1139.734,519.924,1135.507,503.181,1127.278,488.697z M1100.512,574.036c-5.447,10.196-13.094,18.192-22.942,23.985
		c-9.851,5.793-21.03,8.808-33.546,9.039c-12.744-0.231-24.042-3.246-33.893-9.039c-9.847-5.793-17.554-13.789-23.116-23.985
		c-5.563-10.198-8.457-21.901-8.692-35.109c0.235-13.21,3.129-24.97,8.692-35.281c5.562-10.314,13.269-18.367,23.116-24.162
		c9.851-5.793,21.148-8.806,33.893-9.039c12.516,0.233,23.695,3.246,33.546,9.039c9.848,5.795,17.496,13.848,22.942,24.162
		c5.446,10.312,8.286,22.071,8.516,35.281C1108.797,552.135,1105.958,563.838,1100.512,574.036z"/>
</g>
</svg>
