<svg width="515" height="116" xmlns="http://www.w3.org/2000/svg" version="1.1" xml:space="preserve">
 <metadata id="metadata16">image/svg+xml</metadata>

 <g>
  <title>Layer 1</title>
  <g stroke-width="0" id="logo-group" stroke-miterlimit="2" transform="matrix(1.3961 0 0 1.3961 -202.78 -152.08)">
   <path fill="#0072c3" id="path224455" d="m167.07833,120.12237c1.4414,0 2.574,-0.41184 3.6036,-1.4414c1.0296,-1.02956 1.5444,-2.2651 1.5444,-3.7066c0,-1.4414 -0.5148,-2.574 -1.5444,-3.6036c-1.0296,-1.0296 -2.1622,-1.5444 -3.6036,-1.5444c-5.8687,0 -10.811,2.0592 -14.929,6.1776c-4.1184,4.1184 -6.1776,9.1634 -6.1776,14.929l0,54.775c0,1.4414 0.41184,2.677 1.4414,3.7066c1.02956,1.0296 2.2651,1.4414 3.7066,1.4414c1.4414,0 2.574,-0.41184 3.6036,-1.4414c1.0296,-1.02956 1.5444,-2.2651 1.5444,-3.7066l0,-40.257l10.296,0c1.2355,0 2.3681,-0.41184 3.2947,-1.3385c0.82368,-0.82368 1.3385,-1.9562 1.3385,-3.2947c0,-1.2355 -0.5148,-2.3681 -1.3385,-3.2947c-0.92664,-0.82368 -2.0592,-1.3385 -3.2947,-1.3385l-10.296,0l0,-5.251c0,-2.8829 1.0296,-5.4569 3.1918,-7.619c2.0592,-2.0592 4.6332,-3.1918 7.619,-3.1918l-0.0002,-0.0004z"/>
   <path fill="#0079bc" id="path224457" d="m182.02833,111.67237c-1.0296,1.0296 -1.4414,2.2651 -1.4414,3.7066l0,56.216c0,3.7066 0.61776,7.0013 1.9562,9.8842c1.2355,2.8829 3.0888,5.148 5.4569,6.7954c2.3681,1.6474 5.045,2.3681 8.0309,2.3681l0.20592,0c2.0592,0 3.7066,-0.41184 5.045,-1.4414c1.2355,-0.92664 1.9562,-2.1622 1.9562,-3.7066c0,-1.4414 -0.5148,-2.677 -1.3385,-3.7066c-0.82368,-0.92664 -1.9562,-1.4414 -3.2947,-1.4414l-2.574,0c-1.5444,0 -2.7799,-0.82368 -3.7066,-2.471c-1.0296,-1.6474 -1.4414,-3.7066 -1.4414,-6.2806l0,-56.216c0,-1.4414 -0.5148,-2.677 -1.4414,-3.7066c-1.0296,-0.92664 -2.2651,-1.4414 -3.7066,-1.4414c-1.5444,0 -2.7799,0.5148 -3.7066,1.4414l0.00008,-0.0001z"/>
   <path fill="#0080b5" id="path224459" d="m236.02833,191.06237c7.9279,0 14.62,-2.7799 20.18,-8.3398c5.5598,-5.5598 8.4427,-12.252 8.4427,-20.18c0,-7.9279 -2.8829,-14.62 -8.4427,-20.18c-5.5598,-5.5598 -12.252,-8.4427 -20.18,-8.4427c-7.9279,0 -14.62,2.8829 -20.18,8.4427c-5.5598,5.5598 -8.3398,12.252 -8.3398,20.18c0,7.9279 2.7799,14.62 8.3398,20.18c5.5598,5.5598 12.252,8.3398 20.18,8.3398zm0,-47.259c5.148,0 9.5753,1.8533 13.282,5.4569c3.6036,3.7066 5.4569,8.1338 5.4569,13.282c0,5.148 -1.8533,9.5753 -5.4569,13.179c-3.7066,3.7066 -8.1338,5.4569 -13.282,5.4569c-5.148,0 -9.5753,-1.7503 -13.179,-5.4569c-3.7066,-3.6036 -5.4569,-8.0309 -5.4569,-13.179c0,-5.148 1.7503,-9.5753 5.4569,-13.282c3.6036,-3.6036 8.0309,-5.4569 13.179,-5.4569z"/>
   <path fill="#0088af" id="path224461" d="m340.16833,135.46237c-0.72072,-0.72072 -1.7503,-1.1326 -3.1918,-1.1326c-2.677,0 -4.4273,1.6474 -5.3539,4.7362l-11.326,35.418l-9.2664,-36.242c-0.41184,-1.1326 -1.0296,-2.0592 -1.8533,-2.7799c-0.82368,-0.72072 -1.9562,-1.1326 -3.1918,-1.1326c-1.4414,0 -2.574,0.41184 -3.3977,1.1326c-0.82368,0.72072 -1.4414,1.6474 -1.7503,2.7799l-10.502,35.521l-11.12,-34.698c-0.61776,-1.6474 -1.3385,-2.7799 -2.1622,-3.6036c-0.82368,-0.72072 -1.9562,-1.1326 -3.1918,-1.1326c-2.8829,0 -4.3243,1.4414 -4.3243,4.3243c0,1.0296 0.10296,2.0592 0.41184,2.8829l15.238,45.714c0.30888,1.0296 0.92664,1.8533 1.8533,2.471c0.92664,0.61776 1.9562,0.92664 3.0888,0.92664c1.0296,0 2.0592,-0.30888 2.9858,-0.92664c0.92664,-0.61776 1.5444,-1.4414 1.9562,-2.471l10.605,-37.374l10.09,37.374c0.20592,1.0296 0.82368,1.8533 1.7503,2.471c0.92664,0.61776 1.9562,0.92664 3.1918,0.92664c1.0296,0 2.0592,-0.30888 2.9858,-0.92664c0.82368,-0.61776 1.4414,-1.4414 1.8533,-2.471l15.238,-45.714c0.30888,-0.82368 0.5148,-1.8533 0.5148,-2.9858c0,-1.2355 -0.41184,-2.2651 -1.1326,-3.0888l0.00116,0.001z"/>
   <path fill="#008fa8" id="path224463" d="m395.66833,142.36237c-5.5598,-5.5598 -12.252,-8.4427 -20.18,-8.4427c-7.825,0 -14.62,2.8829 -20.18,8.4427c-5.5598,5.5598 -8.3398,12.252 -8.3398,20.18c0,7.9279 2.7799,14.62 8.3398,20.18c5.5598,5.5598 12.355,8.3398 20.18,8.3398c7.1042,0 13.385,-2.2651 18.739,-6.8983l0,1.9562c0,1.4414 0.41184,2.574 1.4414,3.5006c0.92664,1.0296 2.0592,1.4414 3.5006,1.4414c1.3385,0 2.471,-0.41184 3.5006,-1.4414c0.92664,-0.92664 1.4414,-2.0592 1.4414,-3.5006l0,-23.578c0,-7.9279 -2.7799,-14.62 -8.4427,-20.18l-0.0003,0.0003zm-20.18,38.816c-5.148,0 -9.5753,-1.7503 -13.179,-5.4569c-3.7066,-3.6036 -5.4569,-8.0309 -5.4569,-13.179c0,-5.148 1.7503,-9.5753 5.4569,-13.179c3.6036,-3.7066 8.0309,-5.5598 13.179,-5.5598c5.148,0 9.5753,1.8533 13.179,5.5598c3.7066,3.6036 5.5598,8.0309 5.5598,13.179c0,5.148 -1.8533,9.5753 -5.5598,13.179c-3.6036,3.7066 -8.0309,5.4569 -13.179,5.4569z"/>
   <path fill="#0096a1" id="path224465" d="m468.43833,182.72237c-5.5598,5.6628 -12.252,8.4427 -20.18,8.4427c-7.9279,0 -14.62,-2.7799 -20.18,-8.4427c-5.5598,-5.5598 -8.3398,-12.252 -8.3398,-20.18l0,-47.362c0,-1.3385 0.41184,-2.471 1.4414,-3.5006c0.92664,-0.92664 2.0592,-1.4414 3.5006,-1.4414c1.3385,0 2.471,0.5148 3.3977,1.4414c1.0296,1.0296 1.5444,2.1622 1.5444,3.5006l0,25.74c5.251,-4.6332 11.532,-6.8983 18.636,-6.8983c7.9279,0 14.62,2.7799 20.18,8.3398c5.5598,5.5598 8.4427,12.355 8.4427,20.18c0,7.9279 -2.8829,14.62 -8.4427,20.18l-0.0003,0.0005zm-20.18,-38.816c-5.148,0 -9.5753,1.8533 -13.179,5.4569c-3.7066,3.6036 -5.4569,8.0309 -5.4569,13.179c0,5.148 1.7503,9.5753 5.4569,13.282c3.6036,3.6036 8.0309,5.4569 13.179,5.4569c5.148,0 9.5753,-1.8533 13.179,-5.4569c3.7066,-3.7066 5.5598,-8.1338 5.5598,-13.282c0,-5.148 -1.8533,-9.5753 -5.5598,-13.179c-3.6036,-3.6036 -8.0309,-5.4569 -13.179,-5.4569z"/>
   <path fill="#009d9a" id="path224467" d="m491.50833,111.67237c-1.0296,1.0296 -1.4414,2.2651 -1.4414,3.7066l0,56.216c0,3.7066 0.61776,7.0013 1.9562,9.8842c1.2355,2.8829 3.0888,5.148 5.4569,6.7954c2.3681,1.6474 5.045,2.3681 8.0309,2.3681l0.20592,0c2.0592,0 3.7066,-0.41184 5.045,-1.4414c1.2355,-0.92664 1.9562,-2.1622 1.9562,-3.7066c0,-1.4414 -0.5148,-2.677 -1.3385,-3.7066c-0.82368,-0.92664 -1.9562,-1.4414 -3.2947,-1.4414l-2.574,0c-1.5444,0 -2.7799,-0.82368 -3.7066,-2.471c-1.0296,-1.6474 -1.4414,-3.7066 -1.4414,-6.2806l0,-56.216c0,-1.4414 -0.5148,-2.677 -1.4414,-3.7066c-1.0296,-0.92664 -2.2651,-1.4414 -3.7066,-1.4414c-1.5444,0 -2.7799,0.5148 -3.7066,1.4414l0.00008,-0.0001z"/>
  </g>
 </g>
</svg>